<svg id="Iconly_Bulk_Ticket_Star" data-name="Iconly/Bulk/Ticket Star" xmlns="http://www.w3.org/2000/svg" width="42" height="38" viewBox="0 0 42 38">
  <g id="Ticket_Star" data-name="Ticket Star">
    <path id="Fill_1" data-name="Fill 1" d="M40.425,22.117a3.116,3.116,0,1,1,0-6.232A1.571,1.571,0,0,0,42,14.316l0-5.652A8.693,8.693,0,0,0,33.3,0H8.7A8.693,8.693,0,0,0,0,8.664L0,14.5a1.571,1.571,0,0,0,1.575,1.569A2.968,2.968,0,0,1,4.7,19a3.124,3.124,0,0,1-3.127,3.115A1.573,1.573,0,0,0,0,23.686v5.648A8.693,8.693,0,0,0,8.7,38H33.3A8.693,8.693,0,0,0,42,29.334V23.686a1.573,1.573,0,0,0-1.575-1.569" fill="#fff" opacity="0.4"/>
    <path id="Fill_4" data-name="Fill 4" d="M14.881,7.152,12.4,9.576,12.991,13a1.55,1.55,0,0,1-.622,1.528,1.526,1.526,0,0,1-1.638.116L7.676,13.032,4.614,14.649a1.522,1.522,0,0,1-1.632-.116A1.558,1.558,0,0,1,2.363,13l.584-3.426L.471,7.152a1.563,1.563,0,0,1,.867-2.664l3.415-.5L6.283.87A1.55,1.55,0,0,1,7.676,0h0A1.545,1.545,0,0,1,9.07.872L10.6,3.988l3.421.5a1.562,1.562,0,0,1,.859,2.662" transform="translate(13.323 10.979)" fill="#fff"/>
  </g>
</svg>
