<svg id="Iconly_Bulk_3_User" data-name="Iconly/Bulk/3 User" xmlns="http://www.w3.org/2000/svg" width="52" height="37.818" viewBox="0 0 52 37.818">
  <g id="_3_User" data-name="3 User">
    <path id="Fill_1" data-name="Fill 1" d="M15.035,0C6.88,0,0,1.332,0,6.475s6.925,6.43,15.035,6.43c8.155,0,15.035-1.332,15.035-6.475S23.145,0,15.035,0" transform="translate(10.845 24.913)" fill="#fff"/>
    <path id="Fill_3" data-name="Fill 3" d="M9.949,20.013A9.944,9.944,0,0,0,19.9,10.006a9.949,9.949,0,1,0-19.9,0A9.944,9.944,0,0,0,9.949,20.013" transform="translate(15.93)" fill="#fff" opacity="0.4"/>
    <path id="Fill_6" data-name="Fill 6" d="M9.987,10.666A8.448,8.448,0,0,0,1.894,0,8.479,8.479,0,0,0,.218.172.321.321,0,0,0,.023.289a.245.245,0,0,0,.04.26A13.726,13.726,0,0,1,2.586,8.516,13.62,13.62,0,0,1,.26,16.177a.374.374,0,0,0,.252.577,7.758,7.758,0,0,0,1.143.111,8.3,8.3,0,0,0,8.332-6.2" transform="translate(37.494 1.67)" fill="#fff" opacity="0.4"/>
    <path id="Fill_8" data-name="Fill 8" d="M12.78,3.758C12.069,2.234,10.353,1.189,7.743.676A36.767,36.767,0,0,0,.078.005.087.087,0,0,0,0,.065.108.108,0,0,0,.069.178C1.5.891,7.041,3.992,6.344,10.533a.428.428,0,0,0,.478.485c1.363-.2,4.87-.954,5.958-3.314a4.544,4.544,0,0,0,0-3.946" transform="translate(38.769 21.809)" fill="#fff"/>
    <path id="Fill_11" data-name="Fill 11" d="M10.05.172A8.306,8.306,0,0,0,8.374,0,8.446,8.446,0,0,0,.283,10.666a8.3,8.3,0,0,0,8.33,6.2,8.028,8.028,0,0,0,1.143-.111.374.374,0,0,0,.252-.577,13.807,13.807,0,0,1,.2-15.628.244.244,0,0,0,.038-.26A.306.306,0,0,0,10.05.172" transform="translate(4.237 1.671)" fill="#fff" opacity="0.4"/>
    <path id="Fill_13" data-name="Fill 13" d="M5.487.674C2.878,1.187,1.163,2.232.452,3.756a4.534,4.534,0,0,0,0,3.949c1.088,2.358,4.595,3.118,5.958,3.312a.426.426,0,0,0,.476-.485C6.19,3.992,11.729.891,13.164.178a.112.112,0,0,0,.066-.115.08.08,0,0,0-.074-.057A36.676,36.676,0,0,0,5.487.674" transform="translate(0 21.81)" fill="#fff"/>
  </g>
</svg>
